<mxfile host="app.diagrams.net" modified="2023-09-28T17:42:21.417Z" agent="Mozilla/5.0 (Windows NT 10.0; Win64; x64) AppleWebKit/537.36 (KHTML, like Gecko) Chrome/117.0.0.0 Safari/537.36" etag="KsRPme4iWFX7YZCAHQzR" version="22.0.0" type="google">
  <diagram id="C5RBs43oDa-KdzZeNtuy" name="Page-1">
    <mxGraphModel dx="1947" dy="438" grid="1" gridSize="10" guides="1" tooltips="1" connect="1" arrows="1" fold="1" page="1" pageScale="1" pageWidth="827" pageHeight="1169" math="0" shadow="0">
      <root>
        <mxCell id="WIyWlLk6GJQsqaUBKTNV-0" />
        <mxCell id="WIyWlLk6GJQsqaUBKTNV-1" parent="WIyWlLk6GJQsqaUBKTNV-0" />
        <mxCell id="YOkTJSMt4cNQjXBuTDNn-1" value="&lt;b&gt;&lt;font face=&quot;Times New Roman&quot;&gt;MAIN&lt;/font&gt;&lt;/b&gt;" style="swimlane;fontStyle=0;childLayout=stackLayout;horizontal=1;startSize=26;fillColor=none;horizontalStack=0;resizeParent=1;resizeParentMax=0;resizeLast=0;collapsible=1;marginBottom=0;whiteSpace=wrap;html=1;" vertex="1" parent="WIyWlLk6GJQsqaUBKTNV-1">
          <mxGeometry x="280" y="40" width="240" height="50" as="geometry" />
        </mxCell>
        <mxCell id="YOkTJSMt4cNQjXBuTDNn-3" value="+ Iphone;&amp;nbsp; public classs" style="text;strokeColor=none;fillColor=none;align=center;verticalAlign=top;spacingLeft=4;spacingRight=4;overflow=hidden;rotatable=0;points=[[0,0.5],[1,0.5]];portConstraint=eastwest;whiteSpace=wrap;html=1;" vertex="1" parent="YOkTJSMt4cNQjXBuTDNn-1">
          <mxGeometry y="26" width="240" height="24" as="geometry" />
        </mxCell>
        <mxCell id="YOkTJSMt4cNQjXBuTDNn-37" style="edgeStyle=orthogonalEdgeStyle;rounded=0;orthogonalLoop=1;jettySize=auto;html=1;exitX=0.5;exitY=0;exitDx=0;exitDy=0;" edge="1" parent="WIyWlLk6GJQsqaUBKTNV-1" source="YOkTJSMt4cNQjXBuTDNn-10">
          <mxGeometry relative="1" as="geometry">
            <mxPoint x="400" y="100" as="targetPoint" />
          </mxGeometry>
        </mxCell>
        <mxCell id="YOkTJSMt4cNQjXBuTDNn-10" value="&lt;span style=&quot;font-weight: normal;&quot;&gt;&lt;font face=&quot;Times New Roman&quot;&gt;IPHONE&lt;/font&gt;&lt;/span&gt;" style="swimlane;fontStyle=1;align=center;verticalAlign=top;childLayout=stackLayout;horizontal=1;startSize=26;horizontalStack=0;resizeParent=1;resizeParentMax=0;resizeLast=0;collapsible=1;marginBottom=0;whiteSpace=wrap;html=1;" vertex="1" parent="WIyWlLk6GJQsqaUBKTNV-1">
          <mxGeometry x="320" y="240" width="160" height="104" as="geometry" />
        </mxCell>
        <mxCell id="YOkTJSMt4cNQjXBuTDNn-11" value="+ FuncaoTelefone;" style="text;strokeColor=none;fillColor=none;align=left;verticalAlign=top;spacingLeft=4;spacingRight=4;overflow=hidden;rotatable=0;points=[[0,0.5],[1,0.5]];portConstraint=eastwest;whiteSpace=wrap;html=1;" vertex="1" parent="YOkTJSMt4cNQjXBuTDNn-10">
          <mxGeometry y="26" width="160" height="26" as="geometry" />
        </mxCell>
        <mxCell id="YOkTJSMt4cNQjXBuTDNn-13" value="+ FuncaoInternet;" style="text;strokeColor=none;fillColor=none;align=left;verticalAlign=top;spacingLeft=4;spacingRight=4;overflow=hidden;rotatable=0;points=[[0,0.5],[1,0.5]];portConstraint=eastwest;whiteSpace=wrap;html=1;" vertex="1" parent="YOkTJSMt4cNQjXBuTDNn-10">
          <mxGeometry y="52" width="160" height="26" as="geometry" />
        </mxCell>
        <mxCell id="YOkTJSMt4cNQjXBuTDNn-14" value="+ AppReprodutorMusical" style="text;strokeColor=none;fillColor=none;align=left;verticalAlign=top;spacingLeft=4;spacingRight=4;overflow=hidden;rotatable=0;points=[[0,0.5],[1,0.5]];portConstraint=eastwest;whiteSpace=wrap;html=1;" vertex="1" parent="YOkTJSMt4cNQjXBuTDNn-10">
          <mxGeometry y="78" width="160" height="26" as="geometry" />
        </mxCell>
        <mxCell id="YOkTJSMt4cNQjXBuTDNn-22" style="edgeStyle=orthogonalEdgeStyle;rounded=0;orthogonalLoop=1;jettySize=auto;html=1;exitX=0.5;exitY=0;exitDx=0;exitDy=0;entryX=0;entryY=0.5;entryDx=0;entryDy=0;" edge="1" parent="WIyWlLk6GJQsqaUBKTNV-1" source="YOkTJSMt4cNQjXBuTDNn-17" target="YOkTJSMt4cNQjXBuTDNn-13">
          <mxGeometry relative="1" as="geometry" />
        </mxCell>
        <mxCell id="YOkTJSMt4cNQjXBuTDNn-17" value="FuncaoInternet" style="swimlane;fontStyle=0;childLayout=stackLayout;horizontal=1;startSize=26;horizontalStack=0;resizeParent=1;resizeParentMax=0;resizeLast=0;collapsible=1;marginBottom=0;whiteSpace=wrap;html=1;swimlaneFillColor=none;" vertex="1" parent="WIyWlLk6GJQsqaUBKTNV-1">
          <mxGeometry x="140" y="440" width="190" height="104" as="geometry" />
        </mxCell>
        <mxCell id="YOkTJSMt4cNQjXBuTDNn-18" value="+ MostrarPagina ( );&amp;nbsp; void" style="text;strokeColor=none;fillColor=none;align=left;verticalAlign=top;spacingLeft=4;spacingRight=4;overflow=hidden;rotatable=0;points=[[0,0.5],[1,0.5]];portConstraint=eastwest;whiteSpace=wrap;html=1;" vertex="1" parent="YOkTJSMt4cNQjXBuTDNn-17">
          <mxGeometry y="26" width="190" height="26" as="geometry" />
        </mxCell>
        <mxCell id="YOkTJSMt4cNQjXBuTDNn-19" value="+ AbrirNovaAba ( ); void" style="text;align=left;verticalAlign=top;spacingLeft=4;spacingRight=4;overflow=hidden;rotatable=0;points=[[0,0.5],[1,0.5]];portConstraint=eastwest;whiteSpace=wrap;html=1;swimlaneFillColor=none;" vertex="1" parent="YOkTJSMt4cNQjXBuTDNn-17">
          <mxGeometry y="52" width="190" height="26" as="geometry" />
        </mxCell>
        <mxCell id="YOkTJSMt4cNQjXBuTDNn-20" value="+&amp;nbsp; AtualizarPagina ( ); void" style="text;strokeColor=none;fillColor=none;align=left;verticalAlign=top;spacingLeft=4;spacingRight=4;overflow=hidden;rotatable=0;points=[[0,0.5],[1,0.5]];portConstraint=eastwest;whiteSpace=wrap;html=1;" vertex="1" parent="YOkTJSMt4cNQjXBuTDNn-17">
          <mxGeometry y="78" width="190" height="26" as="geometry" />
        </mxCell>
        <mxCell id="YOkTJSMt4cNQjXBuTDNn-24" value="FuncaoTelefone" style="swimlane;fontStyle=0;childLayout=stackLayout;horizontal=1;startSize=26;fillColor=none;horizontalStack=0;resizeParent=1;resizeParentMax=0;resizeLast=0;collapsible=1;marginBottom=0;whiteSpace=wrap;html=1;" vertex="1" parent="WIyWlLk6GJQsqaUBKTNV-1">
          <mxGeometry x="-110" y="110" width="236" height="182" as="geometry" />
        </mxCell>
        <mxCell id="YOkTJSMt4cNQjXBuTDNn-26" value="+ Ligar ( ); void" style="text;strokeColor=none;fillColor=none;align=left;verticalAlign=top;spacingLeft=4;spacingRight=4;overflow=hidden;rotatable=0;points=[[0,0.5],[1,0.5]];portConstraint=eastwest;whiteSpace=wrap;html=1;" vertex="1" parent="YOkTJSMt4cNQjXBuTDNn-24">
          <mxGeometry y="26" width="236" height="26" as="geometry" />
        </mxCell>
        <mxCell id="YOkTJSMt4cNQjXBuTDNn-27" value="+ Atender ( ); void" style="text;strokeColor=none;fillColor=none;align=left;verticalAlign=top;spacingLeft=4;spacingRight=4;overflow=hidden;rotatable=0;points=[[0,0.5],[1,0.5]];portConstraint=eastwest;whiteSpace=wrap;html=1;" vertex="1" parent="YOkTJSMt4cNQjXBuTDNn-24">
          <mxGeometry y="52" width="236" height="26" as="geometry" />
        </mxCell>
        <mxCell id="YOkTJSMt4cNQjXBuTDNn-32" value="+ CorreioDeVoz ( ); void" style="text;strokeColor=none;fillColor=none;align=left;verticalAlign=top;spacingLeft=4;spacingRight=4;overflow=hidden;rotatable=0;points=[[0,0.5],[1,0.5]];portConstraint=eastwest;whiteSpace=wrap;html=1;" vertex="1" parent="YOkTJSMt4cNQjXBuTDNn-24">
          <mxGeometry y="78" width="236" height="26" as="geometry" />
        </mxCell>
        <mxCell id="YOkTJSMt4cNQjXBuTDNn-33" value="+ EnviarMensagem ( ); void" style="text;strokeColor=none;fillColor=none;align=left;verticalAlign=top;spacingLeft=4;spacingRight=4;overflow=hidden;rotatable=0;points=[[0,0.5],[1,0.5]];portConstraint=eastwest;whiteSpace=wrap;html=1;" vertex="1" parent="YOkTJSMt4cNQjXBuTDNn-24">
          <mxGeometry y="104" width="236" height="26" as="geometry" />
        </mxCell>
        <mxCell id="YOkTJSMt4cNQjXBuTDNn-34" value="+ ReceberMensagem ( ); void" style="text;strokeColor=none;fillColor=none;align=left;verticalAlign=top;spacingLeft=4;spacingRight=4;overflow=hidden;rotatable=0;points=[[0,0.5],[1,0.5]];portConstraint=eastwest;whiteSpace=wrap;html=1;" vertex="1" parent="YOkTJSMt4cNQjXBuTDNn-24">
          <mxGeometry y="130" width="236" height="26" as="geometry" />
        </mxCell>
        <mxCell id="YOkTJSMt4cNQjXBuTDNn-25" value="+ EditarMensagem ( ); void" style="text;strokeColor=none;fillColor=none;align=left;verticalAlign=top;spacingLeft=4;spacingRight=4;overflow=hidden;rotatable=0;points=[[0,0.5],[1,0.5]];portConstraint=eastwest;whiteSpace=wrap;html=1;" vertex="1" parent="YOkTJSMt4cNQjXBuTDNn-24">
          <mxGeometry y="156" width="236" height="26" as="geometry" />
        </mxCell>
        <mxCell id="YOkTJSMt4cNQjXBuTDNn-36" style="edgeStyle=orthogonalEdgeStyle;rounded=0;orthogonalLoop=1;jettySize=auto;html=1;exitX=1;exitY=0.5;exitDx=0;exitDy=0;entryX=0;entryY=0.5;entryDx=0;entryDy=0;" edge="1" parent="WIyWlLk6GJQsqaUBKTNV-1" source="YOkTJSMt4cNQjXBuTDNn-32" target="YOkTJSMt4cNQjXBuTDNn-11">
          <mxGeometry relative="1" as="geometry" />
        </mxCell>
        <mxCell id="YOkTJSMt4cNQjXBuTDNn-42" style="edgeStyle=orthogonalEdgeStyle;rounded=0;orthogonalLoop=1;jettySize=auto;html=1;" edge="1" parent="WIyWlLk6GJQsqaUBKTNV-1" source="YOkTJSMt4cNQjXBuTDNn-38" target="YOkTJSMt4cNQjXBuTDNn-14">
          <mxGeometry relative="1" as="geometry" />
        </mxCell>
        <mxCell id="YOkTJSMt4cNQjXBuTDNn-38" value="AppReprodutorMusical" style="swimlane;fontStyle=0;childLayout=stackLayout;horizontal=1;startSize=26;fillColor=none;horizontalStack=0;resizeParent=1;resizeParentMax=0;resizeLast=0;collapsible=1;marginBottom=0;whiteSpace=wrap;html=1;" vertex="1" parent="WIyWlLk6GJQsqaUBKTNV-1">
          <mxGeometry x="560" y="390" width="240" height="104" as="geometry" />
        </mxCell>
        <mxCell id="YOkTJSMt4cNQjXBuTDNn-39" value="+ Play ( ); void" style="text;strokeColor=none;fillColor=none;align=left;verticalAlign=top;spacingLeft=4;spacingRight=4;overflow=hidden;rotatable=0;points=[[0,0.5],[1,0.5]];portConstraint=eastwest;whiteSpace=wrap;html=1;" vertex="1" parent="YOkTJSMt4cNQjXBuTDNn-38">
          <mxGeometry y="26" width="240" height="26" as="geometry" />
        </mxCell>
        <mxCell id="YOkTJSMt4cNQjXBuTDNn-40" value="+ Pause ( ); void" style="text;strokeColor=none;fillColor=none;align=left;verticalAlign=top;spacingLeft=4;spacingRight=4;overflow=hidden;rotatable=0;points=[[0,0.5],[1,0.5]];portConstraint=eastwest;whiteSpace=wrap;html=1;" vertex="1" parent="YOkTJSMt4cNQjXBuTDNn-38">
          <mxGeometry y="52" width="240" height="26" as="geometry" />
        </mxCell>
        <mxCell id="YOkTJSMt4cNQjXBuTDNn-41" value="+ SelecionarMusica ( ); void" style="text;strokeColor=none;fillColor=none;align=left;verticalAlign=top;spacingLeft=4;spacingRight=4;overflow=hidden;rotatable=0;points=[[0,0.5],[1,0.5]];portConstraint=eastwest;whiteSpace=wrap;html=1;" vertex="1" parent="YOkTJSMt4cNQjXBuTDNn-38">
          <mxGeometry y="78" width="240" height="26" as="geometry" />
        </mxCell>
      </root>
    </mxGraphModel>
  </diagram>
</mxfile>
